<svg xmlns="http://www.w3.org/2000/svg" viewBox="0 0 563.71 696.04"><style>@media (prefers-color-scheme: dark) {*{fill:white}</style><path d="M383.45,293.15C298,312.24,330.81,436,413.85,408.21c48.77-16.33,60.52,46.55-.57,55.2-61.71,8.73-122-38.59-128-100.45C280,308.75,317.6,255,371,243.53a154.56,154.56,0,0,1,51.3-2.06,152.8,152.8,0,0,1,26,5.42C471.63,254,496.74,267,521.63,260c44.48-12.54,54.81-71.35,10.15-99.73-45.8-29.1-101.3-37.33-154.32-30.35C300.7,140,230.64,189.9,199.67,261.25c-67.33,155.12,59,322.94,227.18,305.28,78.72-8.27,144.14-73.24,136.2-154.82C554.75,326.44,464.12,275.14,383.45,293.15Z"/><circle cx="198.88" cy="612.03" r="84.01"/><circle cx="84.01" cy="446.65" r="84.01"/><circle cx="84.01" cy="249.38" r="84.01"/><circle cx="198.89" cy="84.01" r="84.01"/></svg>
