<svg xmlns="http://www.w3.org/2000/svg" viewBox="0 0 889.67 370.52"><defs><style>.cls-1{fill:#fff;}.cls-2{fill:none;stroke:#fff;stroke-linecap:round;stroke-linejoin:round;stroke-width:11.42px;}</style></defs><g id="Layer_2" data-name="Layer 2"><g id="Layer_1-2" data-name="Layer 1"><circle class="cls-1" cx="176.28" cy="228.13" r="18.08"/><circle class="cls-1" cx="151.56" cy="192.54" r="18.08"/><circle class="cls-1" cx="151.56" cy="150.08" r="18.08"/><circle class="cls-1" cx="176.28" cy="114.49" r="18.08"/><path class="cls-1" d="M216,159.5c-18.39,4.11-11.33,30.75,6.55,24.76,10.49-3.51,13,10-.13,11.88s-26.26-8.3-27.55-21.62c-1.13-11.66,7-23.23,18.46-25.7a34.39,34.39,0,0,1,16.63.72c5,1.54,10.43,4.32,15.78,2.82,9.58-2.7,11.8-15.36,2.19-21.47-9.86-6.26-21.8-8-33.22-6.53-16.51,2.18-31.59,12.92-38.26,28.27C162,186,189.15,222.14,225.34,218.34c16.95-1.78,31-15.77,29.32-33.32C252.87,166.67,233.37,155.62,216,159.5Z"/><path class="cls-1" d="M262.07,156.72c0-5.72,4.18-8.59,9.66-8.59,7.28,0,9.31,4.89,10,11.22,0,.12,0,.71.24.71s.24-.24.48-.48c2.74-5.48,5.24-10.61,12.88-10.61,5.84,0,9.66,3.82,9.66,9.66,0,3.7-1.43,7.63-4.65,9.54-5,3.22-10.86,0-15.39,4.77-2.74,2.87-3.34,4.89-3.34,8.95,0,6.92,1.55,14.55,1.55,17.89,0,6-2.86,9.9-8.82,9.9-7.16,0-10.86-3.58-10.86-10.85,0-7.76,1.08-15.63,1.08-23.38C264.58,165.43,262.07,162.92,262.07,156.72Z"/><path class="cls-1" d="M361.3,164.47c0,3.82-.59,8.59-.59,12.41,0,16.22,1.31,21.35,1.31,25.28,0,5.13-4.41,7.52-8.95,7.52-7.75,0-7.87-6.8-10.61-6.8-1.67,0-5.13,6.8-14.43,6.8-14.79,0-21.59-13.36-21.59-26.6,0-22.9,11.21-35.66,32.44-35.66C351.28,147.42,361.3,151.71,361.3,164.47Zm-28.38,29.35c9.3,0,12-11.93,12-19.09s-.12-12.16-8.58-12.16c-10.26,0-13,10.73-13,19.2C323.38,187.73,325.88,193.82,332.92,193.82Z"/><path class="cls-1" d="M421.41,162.81c0,4.77-4.17,7.63-8.58,7.63-7.16,0-6.92-7-14.08-7-9.42,0-13.47,6.56-13.47,15.75,0,7.87,3.69,15.5,12.76,15.5,10.61,0,10.25-8.59,17.77-8.59a7.79,7.79,0,0,1,7.87,7.87c0,11-14.43,16.23-24.57,16.23-22.06,0-30.06-13.48-30.06-31.49,0-19.32,12.77-30.54,30.3-30.54C408.53,148.13,421.41,152.43,421.41,162.81Z"/><path class="cls-1" d="M452.54,138.83c0,6.32-2.74,11.93-9.78,11.93A11.5,11.5,0,0,1,430.83,139c0-7.51,3.7-10.73,10.86-10.73C448.25,128.22,452.54,132.75,452.54,138.83Zm-2.14,27.55c0,1.79-.36,9.07-.36,10.38,0,7.39,1.43,13.72,1.43,20.16,0,8-1.55,12.64-10.26,12.64-7.63,0-9.3-3.82-9.3-11,0-4.06,1.07-8,1.07-11.93,0-5.73-1.07-11.33-1.07-17.06,0-6.2,1.67-12.4,8.94-12.4C447.17,157.2,450.4,160.18,450.4,166.38Z"/><path class="cls-1" d="M512.06,175.81c-5.49,8.82-23.14,5.6-31.49,7.51-1.79.48-2.86,1.31-2.86,3.34,0,6.44,6.8,9.3,12.4,9.3,12.53,0,10.74-7.87,17.77-7.87,4.06,0,8.23,3.22,8.23,7.51,0,10.62-16.93,15.51-25.64,15.51-19.2,0-29.7-11-29.7-30.06,0-20.15,7.75-34,29.34-34,12.41,0,24.57,6.68,24.57,19.56A17.87,17.87,0,0,1,512.06,175.81Zm-13.84-10c0-4.89-6.8-6-10.26-6a9.58,9.58,0,0,0-10,10c0,2.51,3,2.51,6.56,2.51C490,172.35,498.22,172.23,498.22,165.79Z"/><path class="cls-1" d="M613.79,185c0,19.92-17.65,26.12-34.35,26.12-12.76,0-27.43-1.07-28.5-15-.36-5.13-1.08-10.26-1.08-21.71,0-8.82,0-16.81.48-25.52.24-6.44,2-13.95,8.59-17.06,4.17-1.9,13.24-2.5,17.89-2.5,16.81,0,31.6,3.58,31.6,22.42,0,8.47-3.81,13.24-10,15.39C609.26,169.25,613.79,173.54,613.79,185ZM578,163c6.44,0,13.12-1.43,13.12-9.18,0-6.8-6.68-10.38-12.76-10.38-3,0-7,.72-9.31,2.87-1.19,1.19-1.31,5.48-1.31,7.15C567.75,160.78,570.5,163,578,163Zm1.43,32.21c6.68,0,14.07-2.39,14.07-10.26s-8.23-9.42-14.67-9.42c-2.74,0-6.67.36-9.06,1.91-1.79,1.07-2,4.77-2,6.67C567.75,192,571.57,195.25,579.44,195.25Z"/><path class="cls-1" d="M672.35,175.81c-5.49,8.82-23.14,5.6-31.49,7.51-1.79.48-2.86,1.31-2.86,3.34,0,6.44,6.8,9.3,12.41,9.3,12.52,0,10.73-7.87,17.77-7.87,4.05,0,8.23,3.22,8.23,7.51,0,10.62-16.94,15.51-25.65,15.51-19.2,0-29.7-11-29.7-30.06,0-20.15,7.76-34,29.35-34,12.4,0,24.57,6.68,24.57,19.56A17.88,17.88,0,0,1,672.35,175.81Zm-13.83-10c0-4.89-6.8-6-10.26-6a9.58,9.58,0,0,0-10,10c0,2.51,3,2.51,6.56,2.51C650.29,172.35,658.52,172.23,658.52,165.79Z"/><path class="cls-1" d="M703,140c0,4.18-2.86,19.92-2.86,40,0,5.49.36,12.76,4.05,12.76,1.55,0,3.22-1.43,6.09-1.43,3.93,0,6,3.7,6,7.4,0,8.23-8.71,11-15.74,11-14,0-16.7-11.69-16.7-23.38,0-22.42.48-35.66.48-49.62,0-6.2,3.33-9.78,9.54-9.78C702.17,126.9,703,132.75,703,140Z"/><path class="cls-1" d="M743.55,137.28c0,6.68-4.17,17.53-4.17,34.11A104.83,104.83,0,0,0,740,185c.24,2.5,1.2,7.75,4.78,7.75,2.26,0,3.81-1.19,6.2-1.19,3.69,0,5.24,4.17,5.24,7.75,0,7.64-7.63,11.09-14.07,11.09-13.12,0-17.41-8.34-18.72-20.75-.84-7.63-.84-19.8-.84-29.58a212.52,212.52,0,0,1,1.07-23.49c.72-5.73,4.89-9.9,10.74-9.9C740.69,126.67,743.55,131.44,743.55,137.28Z"/><path class="cls-1" d="M279.78,249a21.92,21.92,0,0,0-4.55-8c-3.29-3.46-6.92-4-10.65-1.29a12.11,12.11,0,0,0-3.67,4.4l-.36.68-.45-.81c-2.11-3.74-5.19-5.75-9.18-5.95l-.58,0-.53,0a8.06,8.06,0,0,0-3.26.87h0a15.07,15.07,0,0,0-7,7.46A27.28,27.28,0,0,0,237,258.05a31.93,31.93,0,0,0,1.85,10.75c1.3,3.57,2.8,5.31,4.56,5.31h.21c1.41-.07,1.56-.93,1.56-1.3a2.27,2.27,0,0,0-.78-1.57,11.47,11.47,0,0,1-1.61-2.63,23.59,23.59,0,0,1-2-9.91,24.07,24.07,0,0,1,2.25-10.62,15.23,15.23,0,0,1,2.34-3.39,10.52,10.52,0,0,1,2.68-2.33,5.06,5.06,0,0,1,2.31-.54,6.18,6.18,0,0,1,3.66,1.27,9.38,9.38,0,0,1,2.91,3.53,20.6,20.6,0,0,1,1.26,3.7,16.56,16.56,0,0,1,.69,3.44,2.44,2.44,0,0,0,.71,1.57,2,2,0,0,0,1.42.84,1.55,1.55,0,0,0,1.5-1.07A11.3,11.3,0,0,0,263,252a15.31,15.31,0,0,1,1.91-6.93c1.07-1.84,2.34-2.89,3.79-3.15l.24,0,.12,0c2,0,3.94,2.09,5.82,6.22a32.65,32.65,0,0,1,2.93,13.71,55.25,55.25,0,0,1-.35,5.71,22,22,0,0,0-.18,2.58c0,2.1.84,2.54,1.54,2.54,1.11,0,1.88-.89,2.28-2.63a38.54,38.54,0,0,0,.55-7.9,53.44,53.44,0,0,0-.36-7.16A35.53,35.53,0,0,0,279.78,249Z"/><path class="cls-1" d="M309.3,246.05a1.53,1.53,0,0,0-1.57.83,3.7,3.7,0,0,0-.3,1.76c0,.73,0,1.32.06,1.81s.06,1,.06,1.84a17.91,17.91,0,0,1-2.68,10.14c-2.41,3.53-5.13,5.36-8.08,5.43h-.11c-2.94,0-5.13-2.09-6.67-6.38a9.31,9.31,0,0,1-.53-2.41c-.06-.77-.09-2.63-.09-5.55,0-2.66-.05-4.47-.15-5.38-.05-.47-.19-1.74-1.09-1.74a1.83,1.83,0,0,0-.8.22,3.49,3.49,0,0,0-1.58,2.6,31.32,31.32,0,0,0-.39,5.89,25.78,25.78,0,0,0,.72,7.24,17.6,17.6,0,0,0,1.4,3.57,14.32,14.32,0,0,0,2.15,2.81,13.17,13.17,0,0,0,2.79,2.32,6.54,6.54,0,0,0,1.79.73,15.83,15.83,0,0,0,2.68.15,13.86,13.86,0,0,0,2.81-.19,10.08,10.08,0,0,0,2.18-.86,18.2,18.2,0,0,0,4.3-3.54,20,20,0,0,0,3.37-4.61,21.38,21.38,0,0,0,2-9.5V252a17.08,17.08,0,0,0-.46-4.41A2.1,2.1,0,0,0,309.3,246.05Z"/><path class="cls-1" d="M317.2,235.11a1.72,1.72,0,0,0-1.36.57h0c-.24.29-.64.78-.64,26.65,0,8.28.13,8.45.27,8.63a1.33,1.33,0,0,0,1.16.52l.4,0c.94-.1,1.54-.94,1.8-2.48.22-1.36.38-4.58.5-9.87.08-4.77.12-8.13.12-10,0-12.47-.49-13.05-.76-13.37A1.88,1.88,0,0,0,317.2,235.11Z"/><path class="cls-1" d="M348,262.08a1.32,1.32,0,0,0-1.2-.92c-.73,0-1.66.56-2.92,1.78-2.17,2.06-4.23,3.1-6.14,3.1a3.66,3.66,0,0,1-2.72-1.1,10.05,10.05,0,0,1-2.51-5.58,8.67,8.67,0,0,1-.23-1.61c0-.21.05-.28.07-.3s.71-.22,4-.22a21.63,21.63,0,0,0,4.31-.28c1.26-.29,1.52-1,1.52-1.49a2.1,2.1,0,0,0-1.08-1.62,6.2,6.2,0,0,0-3.45-.68h-1.78l-3.55.05.15-.9c.12-.67.33-1.82.65-3.47a22.28,22.28,0,0,0,.42-2.79,1.32,1.32,0,0,0-.78-1.39,2.64,2.64,0,0,0-.88-.2,1.71,1.71,0,0,0-1.36.69,3.46,3.46,0,0,0-.64,1.07,11.76,11.76,0,0,0-.49,1.6c-.14.59-.26,1.13-.38,1.62s-.25,1.12-.39,1.81-.23,1.22-.27,1.49l-.11.68-1.56.09c-2.33.14-3.51.83-3.51,2.07,0,1.67,2.59,1.88,3.44,1.94l1.62.15.3,2a13.73,13.73,0,0,0,3.54,8,7.71,7.71,0,0,0,5.52,2.49,12.66,12.66,0,0,0,1.46-.12,12.35,12.35,0,0,0,6.09-2.66c2-1.58,3-3.06,3-4.52a2.7,2.7,0,0,0-.14-.8Z"/><path class="cls-1" d="M356.31,255.1a1.87,1.87,0,0,0-1.34.55h0c-.23.23-.5.73-.73,3.65-.15,2-.23,4.07-.23,6.16a21.66,21.66,0,0,0,.31,4.54,2.55,2.55,0,0,0,.59,1.23,1.73,1.73,0,0,0,1.16.29c.35,0,1.39,0,1.69-.8.05-.14.14-.41.38-7.37.08-3.31.11-4.79.11-5,0-1.89-.29-2.43-.55-2.69A1.93,1.93,0,0,0,356.31,255.1Z"/><path class="cls-1" d="M356.72,238.58a4.07,4.07,0,0,0-1.19.13,4.43,4.43,0,0,0-2.46,1.68,4.77,4.77,0,0,0-.35,5.14,4.4,4.4,0,0,0,1.94,1.65,5.88,5.88,0,0,0,2.65.64,3.37,3.37,0,0,0,1.69-.35,3.81,3.81,0,0,0,2-3.65,5.72,5.72,0,0,0-1.2-3.75A3.87,3.87,0,0,0,356.72,238.58Z"/><path class="cls-1" d="M402.69,245.62a7,7,0,0,0-3-.87l-.51,0-.58,0c-3,.2-5.92,1.61-8.82,4.18l-1.39,1.26-.63-1.08a10,10,0,0,0-11.48-4.82h0a13.8,13.8,0,0,0-6.28,4.07,19.82,19.82,0,0,0-4.22,7.29,18.28,18.28,0,0,0-.84,5.74c0,3.6.6,5.81,1.84,6.74l1.14.81,1-.92a1.7,1.7,0,0,0,.61-1.16,7.38,7.38,0,0,0-.37-1.71,12.9,12.9,0,0,1-.46-3.41A15.12,15.12,0,0,1,373.11,251a13,13,0,0,1,2.94-2.32,6.23,6.23,0,0,1,2.9-.65h.47a4.71,4.71,0,0,1,2.47.64,7.18,7.18,0,0,1,2.64,3,9.08,9.08,0,0,1,1.12,4.19c0,2.26,1.4,2.6,2.24,2.6s2-.3,2-2.3c0-.82.6-1.89,1.79-3.18a14.84,14.84,0,0,1,4.17-3.21c2.24-1.06,4.12-1.19,5.34-.34a6.44,6.44,0,0,1,2.12,3.35,17.58,17.58,0,0,1,.8,5.43,17,17,0,0,1-1.48,7.32c-.48,1-.79,1.63-.94,2a1.3,1.3,0,0,0-.11.56,1.34,1.34,0,0,0,.57,1.09,1.84,1.84,0,0,0,1.15.39,1.41,1.41,0,0,0,.5-.08c1.46-.38,2.6-1.86,3.48-4.55a24.92,24.92,0,0,0,.73-7,22.42,22.42,0,0,0-.68-6.33A10.08,10.08,0,0,0,402.69,245.62Z"/><path class="cls-1" d="M434.76,252a12.05,12.05,0,0,0-4.45-3.71,12.7,12.7,0,0,0-5.31-1,11.39,11.39,0,0,0-3.32.43,15.53,15.53,0,0,0-5.36,2.76,13.27,13.27,0,0,0-3.69,4.49,10.85,10.85,0,0,0-.93,4.74,17.58,17.58,0,0,0,.15,2.76,8.75,8.75,0,0,0,.84,2.21,11.88,11.88,0,0,0,5.05,5.24,16.16,16.16,0,0,0,7.84,1.85c.77,0,1.35,0,1.75-.06,3.07-.26,4.66-.91,5-2a2.21,2.21,0,0,0,.14-.62c0-1.25-2.11-1.42-4.18-1.42h-2.35a14.12,14.12,0,0,1-4.5-.62,8.76,8.76,0,0,1-4.16-2.93,6.91,6.91,0,0,1-1.62-4c.31.74,1.19,1.22,2.67,1.48s4.33.45,8.77.65l8.41.3.94-.79a3.37,3.37,0,0,0,1-2.46,7.79,7.79,0,0,0-.19-1.56A13.5,13.5,0,0,0,434.76,252ZM419,253.54a10,10,0,0,1,6.26-2.19h.18a6.8,6.8,0,0,1,5.9,2.68,15.28,15.28,0,0,1,1.34,2.51,13.2,13.2,0,0,1,.7,1.79h-.47c-.67,0-3.26-.08-7.69-.24-2.7-.12-4.73-.18-6-.18s-2.74.09-3.36.6A8.81,8.81,0,0,1,419,253.54Z"/><path class="cls-1" d="M462.12,234.13a2.08,2.08,0,0,0-2-1.2,1.57,1.57,0,0,0-1.54.85,2.91,2.91,0,0,0-.23,1.27c0,.47.1,1.47.3,3.07.31,2.09.63,5.38.94,9.79s.47,7.6.47,9.49c0,4-.59,6.92-1.77,8.58s-3.09,2.41-5.81,2.41a7.23,7.23,0,0,1-5.2-2A6.15,6.15,0,0,1,446,258.9a11.86,11.86,0,0,1,4-4.63,9.14,9.14,0,0,1,5.18-1.74,4.41,4.41,0,0,1,.82.05,12.8,12.8,0,0,0,1.47.12c1.8,0,2.06-.89,2.06-1.41a1.82,1.82,0,0,0-1.26-1.9,13.36,13.36,0,0,0-3.74-.35,18,18,0,0,0-2.86.16,9.63,9.63,0,0,0-2.11.77,14.2,14.2,0,0,0-4,3,16,16,0,0,0-3.07,4.25,10.69,10.69,0,0,0-1.1,4.55,11,11,0,0,0,.62,4,10.82,10.82,0,0,0,2.34,3.34,11.61,11.61,0,0,0,3.75,2.63,13.63,13.63,0,0,0,4.71.8h.35a10.71,10.71,0,0,0,7.38-2.71,11.58,11.58,0,0,0,3.32-6.74,36.49,36.49,0,0,0,.24-5.2c0-4.26-.2-9.07-.59-14.3S462.58,235.15,462.12,234.13Z"/><path class="cls-1" d="M472.45,238.58a4.16,4.16,0,0,0-1.19.13,4.41,4.41,0,0,0-2.45,1.68,4.71,4.71,0,0,0-.35,5.14,4.42,4.42,0,0,0,1.93,1.65,5.94,5.94,0,0,0,2.65.64,3.42,3.42,0,0,0,1.7-.35,3.8,3.8,0,0,0,2-3.65,5.77,5.77,0,0,0-1.19-3.75A3.88,3.88,0,0,0,472.45,238.58Z"/><path class="cls-1" d="M472,255.1a1.83,1.83,0,0,0-1.33.55c-.24.23-.5.73-.73,3.65-.16,2-.24,4.07-.24,6.16a20.78,20.78,0,0,0,.32,4.54,2.56,2.56,0,0,0,.58,1.23,1.77,1.77,0,0,0,1.17.29c.34,0,1.39,0,1.69-.8,0-.14.13-.41.37-7.37.08-3.17.12-4.79.12-5,0-1.89-.29-2.43-.55-2.69A2,2,0,0,0,472,255.1Z"/><path class="cls-1" d="M508.16,259.87a37.45,37.45,0,0,1,.23-4.25c.2-2.51.3-4.07.3-4.75,0-1.44-.4-2.18-1.19-2.18a3.3,3.3,0,0,0-.77.14,2.14,2.14,0,0,0-1.45,1.74l-.19.64c-.21-.18-.53-.48-1-1a18.22,18.22,0,0,0-5.61-3.45,17,17,0,0,0-6.24-1.32,8.66,8.66,0,0,0-2.92.44h0a13.15,13.15,0,0,0-3.76,3c-2.92,3.13-4.53,6.27-4.77,9.38v.77a11.65,11.65,0,0,0,3.76,8.72,12.62,12.62,0,0,0,8.95,3.57,14.38,14.38,0,0,0,2.75-.3,14.67,14.67,0,0,0,7.45-3.94l1.21-1.13.25.81a6.79,6.79,0,0,0,1.29,2.3c.68.82,1.24,1.21,1.75,1.21a1.66,1.66,0,0,0,1.06-.6c.46-.43.65-.75.65-1.06a7.37,7.37,0,0,0-.62-2.1A19.14,19.14,0,0,1,508.16,259.87Zm-4.43-1.65a6.59,6.59,0,0,1-.65,2.73,11.08,11.08,0,0,1-5.07,5.14,11.43,11.43,0,0,1-2,.79,12.74,12.74,0,0,1-2.37.16,9.49,9.49,0,0,1-4.08-.77,7.64,7.64,0,0,1-4.67-7.4,9.14,9.14,0,0,1,1.35-4.61,12.35,12.35,0,0,1,3.64-3.95,3.38,3.38,0,0,1,1.88-.9,5.7,5.7,0,0,1,.76.05,18,18,0,0,1,7.27,2.63C502.4,254,503.73,256,503.73,258.22Z"/><path class="cls-1" d="M560,252.59l-1.1-.32-.15-1.92a27.59,27.59,0,0,0-2.93-9.87,14.86,14.86,0,0,0-2.65-3.58,14,14,0,0,0-3.27-2.57,10.72,10.72,0,0,0-4.8-1.05,6.5,6.5,0,0,0-2.41.39,17.35,17.35,0,0,0-7.29,6A31.88,31.88,0,0,0,530.27,250a6.56,6.56,0,0,1-1.18,2.69,1.75,1.75,0,0,0-.37,1.94,1.84,1.84,0,0,1,.12.79,8,8,0,0,1-.11,1.1,25.71,25.71,0,0,0-.24,4.08,29.46,29.46,0,0,0,.42,5.8c.52,2.5,1.38,3.84,2.62,4.07h.32c.39,0,1.3-.15,1.3-1.59a10,10,0,0,0-.31-1.94,28,28,0,0,1-.51-6.3,19.28,19.28,0,0,1,.23-3.56l.17-1,8-.11c1.18,0,3-.06,5.33-.06,2.72,0,4.84,0,6.34.11l2.9.11.11,5.79c.24,6.41.37,6.63.48,6.81l0,.06a1.38,1.38,0,0,0,1.07.53,1.8,1.8,0,0,0,1.64-1c.28-.42.6-1.38.6-4.89l0-7.41h.46c2,0,2.41-.83,2.41-1.53C562.08,253.66,561.4,253,560,252.59Zm-5.21-.66-10.57,0h-2.41c-5.29,0-7.32-.06-8.07-.12.1-.33.31-.93.75-2,.58-1.46,1.1-2.67,1.51-3.58a22.22,22.22,0,0,1,4.66-6.47,8.12,8.12,0,0,1,4.79-2.5h.18a5.13,5.13,0,0,1,1.72.39h0c1.73.62,3.28,2.13,4.63,4.49a22.59,22.59,0,0,1,2.65,8.59Z"/><path class="cls-1" d="M584.13,246.63a11.74,11.74,0,0,0-3.43.55h0c-4.3,1.4-7.81,4.67-10.45,9.7l-.18.36-.16-1.76a25.52,25.52,0,0,0-.49-4.17,1.69,1.69,0,0,0-3.15,0,8.67,8.67,0,0,0-.13,1.88c0,2.43.15,5.9.44,10.32.4,5.95.65,7.12.85,7.49l0,0a2,2,0,0,0,1.74.8c1.07,0,1.44-.47,1.56-.82a14.12,14.12,0,0,0,.56-3.49,21.76,21.76,0,0,1,6-13.3,12.88,12.88,0,0,1,3.23-2.44,8.28,8.28,0,0,1,3.73-.83,5.32,5.32,0,0,1,1.66.21,8.07,8.07,0,0,1,2.85,2.08,22.75,22.75,0,0,1,3,4c1.39,2.4,2.43,3.47,3.35,3.47a1.37,1.37,0,0,0,.84-.25,1.48,1.48,0,0,0,.69-1.34,10.34,10.34,0,0,0-1.22-3.63C592.56,249.61,588.74,246.63,584.13,246.63Z"/><path class="cls-1" d="M625.44,262.08a1.32,1.32,0,0,0-1.2-.92c-.73,0-1.66.56-2.92,1.78-2.17,2.06-4.23,3.1-6.14,3.1a3.66,3.66,0,0,1-2.72-1.1,10.12,10.12,0,0,1-2.52-5.58,9.14,9.14,0,0,1-.22-1.61c0-.19,0-.28.07-.3s.71-.22,4-.22a21.7,21.7,0,0,0,4.31-.28c1.26-.28,1.52-1,1.52-1.49a2.1,2.1,0,0,0-1.08-1.62,6.22,6.22,0,0,0-3.46-.68h-1.77l-3.55.05.15-.9c.12-.67.33-1.82.65-3.47a20.71,20.71,0,0,0,.41-2.79,1.31,1.31,0,0,0-.78-1.39,2.55,2.55,0,0,0-.87-.2,1.71,1.71,0,0,0-1.36.69,3.46,3.46,0,0,0-.64,1.07,11.76,11.76,0,0,0-.49,1.6c-.14.59-.27,1.13-.38,1.62s-.25,1.12-.39,1.81-.23,1.21-.27,1.49l-.11.68-1.56.09c-2.33.14-3.51.83-3.51,2.07,0,1.67,2.59,1.88,3.44,1.94l1.62.15.3,2a13.73,13.73,0,0,0,3.54,8,7.71,7.71,0,0,0,5.52,2.49,12.66,12.66,0,0,0,1.46-.12,12.35,12.35,0,0,0,6.09-2.66c2-1.58,3-3.06,3-4.52a2.7,2.7,0,0,0-.14-.8Z"/><path class="cls-1" d="M634.12,238.58a4.07,4.07,0,0,0-1.19.13,4.43,4.43,0,0,0-2.46,1.68,4.77,4.77,0,0,0-.35,5.14,4.4,4.4,0,0,0,1.94,1.65,5.88,5.88,0,0,0,2.65.64,3.37,3.37,0,0,0,1.69-.35,3.81,3.81,0,0,0,2-3.65,5.72,5.72,0,0,0-1.2-3.75A3.87,3.87,0,0,0,634.12,238.58Z"/><path class="cls-1" d="M633.71,255.1a1.87,1.87,0,0,0-1.34.55c-.23.23-.5.73-.73,3.65-.15,2-.23,4.07-.23,6.16a21.66,21.66,0,0,0,.31,4.54,2.55,2.55,0,0,0,.59,1.23,1.73,1.73,0,0,0,1.16.29c.35,0,1.39,0,1.69-.8.05-.14.14-.41.38-7.37.07-3.17.11-4.79.11-5,0-1.89-.29-2.43-.55-2.69A1.93,1.93,0,0,0,633.71,255.1Z"/><path class="cls-1" d="M657.74,246.51a10.76,10.76,0,0,0-4.86-1,5.92,5.92,0,0,0-1.66.19,11.13,11.13,0,0,0-4.08,2.06,5.15,5.15,0,0,0-2,3.14,6.67,6.67,0,0,0-.13,1.08c0,2.31,1.67,4.64,5,6.92,2.54,1.78,4.08,3.31,4.59,4.55a4,4,0,0,1,.32,1.47c0,1.52-1.09,2.51-3.31,3l-1.33.23a5.33,5.33,0,0,1-1.51-.43,6.44,6.44,0,0,1-2.34-1.91c-1.32-1.77-1.91-2-2.32-2a1.34,1.34,0,0,0-.93.49,2,2,0,0,0-.55,1.45,5.09,5.09,0,0,0,1,2.76A9.46,9.46,0,0,0,646,271a4.91,4.91,0,0,0,1.74.84,19.51,19.51,0,0,0,2.77.12,11.55,11.55,0,0,0,3.9-.5,7.91,7.91,0,0,0,2.79-1.94,6.64,6.64,0,0,0,1.72-4.8,7.75,7.75,0,0,0-1.44-4.59,20.14,20.14,0,0,0-4.82-4.39c-2.94-2-3.56-3.2-3.56-3.84a1.35,1.35,0,0,1,.21-.73c.81-1.19,2.32-1.79,4.49-1.79a6.3,6.3,0,0,1,2.27.43,11.72,11.72,0,0,1,2.69,2.19c1.56,1.57,2.13,1.79,2.51,1.79s.88-.15,1.1-1.09a2.43,2.43,0,0,0,.08-.68,4.58,4.58,0,0,0-1.38-2.93A11.34,11.34,0,0,0,657.74,246.51Z"/><path class="cls-1" d="M691.44,262.13l0-.05a1.31,1.31,0,0,0-1.2-.92c-.73,0-1.66.56-2.91,1.78-2.18,2.06-4.24,3.1-6.15,3.1a3.66,3.66,0,0,1-2.72-1.1,10.05,10.05,0,0,1-2.51-5.58,8.46,8.46,0,0,1-.23-1.61c0-.19,0-.28.07-.3s.71-.22,4-.22a21.82,21.82,0,0,0,4.32-.28c1.25-.28,1.51-1,1.51-1.49a2.1,2.1,0,0,0-1.08-1.62,6.2,6.2,0,0,0-3.45-.68h-1.77l-3.55.05.14-.9c.12-.67.33-1.82.65-3.47a22.28,22.28,0,0,0,.42-2.79,1.32,1.32,0,0,0-.78-1.39,2.64,2.64,0,0,0-.88-.2,1.69,1.69,0,0,0-1.35.69,3.28,3.28,0,0,0-.65,1.07,11.76,11.76,0,0,0-.49,1.6c-.14.59-.26,1.13-.38,1.62s-.25,1.12-.39,1.81-.23,1.21-.26,1.49l-.12.68-1.56.09c-2.33.14-3.51.83-3.51,2.07,0,1.67,2.59,1.88,3.44,1.94l1.62.15.3,2a13.74,13.74,0,0,0,3.55,8,7.67,7.67,0,0,0,5.51,2.49,13,13,0,0,0,1.47-.12,12.36,12.36,0,0,0,6.08-2.66c2.05-1.58,3-3.06,3-4.52A2.7,2.7,0,0,0,691.44,262.13Z"/><path class="cls-2" d="M812.49,113.45c-1-65.81-77.45-93.61-121.18-52.14C654.87-3.61,569.51-11.5,521,37.24c-43.06-43.18-111.74-40.68-152.24,0C315.75-15,231.84.82,198.36,61.31,151,17.68,77.69,51.38,77.19,113.45c-97.19,4.9-93.39,140.48,0,143.62,1,65.81,77.44,93.61,121.17,52.14C234.8,374.13,320.17,382,368.72,333.28c43,43.18,111.74,40.68,152.24,0,53,52.2,136.87,36.42,170.35-24.07,47.4,43.62,120.67,9.93,121.18-52.14C909.68,252.17,905.88,116.59,812.49,113.45Z"/></g></g></svg>