<svg xmlns="http://www.w3.org/2000/svg" viewBox="0 0 100 100" fill="black"><path d="M50.58,78.64c-14.11,0-27.91-8.41-27.91-28.68,0-19.89,13.18-28.6,27.14-28.6,13.72,0,27.52,6.86,27.52,24.44,0,10.46-5.11,17.66-15.77,17.66h-.07c-2.91,0-4.65-.74-4.65-3v-.55c-1.15,2.79-3.9,4.45-8.18,4.45-7.51,0-12.53-5.76-12.53-14.43s5-14.36,12.53-14.36a8.65,8.65,0,0,1,8.18,5.1V39.23c0-2,1.35-3,3.31-3s3.16,1.06,3.16,3V57.7c4.88-.19,6.49-5.17,6.49-11.55,0-11.16-7.59-17.91-20.12-17.91-11.87,0-19.83,8.11-19.83,21.75,0,13.86,8.31,21.83,20.6,21.83a25.09,25.09,0,0,0,11.38-2.63c3.32-1.61,4.7-1,5.68.51s1.26,3.62-.82,4.85c-4.47,2.78-9.79,4.09-16.12,4.09Zm-.83-21c4.79,0,7-2.53,7-8,0-4.81-2.78-8-7-8-3.5,0-6.93,2.47-6.93,8s3.37,8,6.93,8Z"/></svg>
