<?xml version="1.0" encoding="UTF-8" standalone="no"?>
<!DOCTYPE svg PUBLIC "-//W3C//DTD SVG 1.1//EN" "http://www.w3.org/Graphics/SVG/1.1/DTD/svg11.dtd">
<svg width="100%" height="100%" viewBox="0 0 256 400" version="1.1" xmlns="http://www.w3.org/2000/svg" xmlns:xlink="http://www.w3.org/1999/xlink" xml:space="preserve" xmlns:serif="http://www.serif.com/" style="fill-rule:evenodd;clip-rule:evenodd;stroke-linejoin:round;stroke-miterlimit:2;">
    <g id="Artboard1" transform="matrix(1,0,0,1,-72.5587,0)">
        <rect x="72.559" y="0" width="255.343" height="400" style="fill:none;"/>
        <clipPath id="_clip1">
            <rect x="72.559" y="0" width="255.343" height="400"/>
        </clipPath>
        <g clip-path="url(#_clip1)">
            <g transform="matrix(1.56987,0,0,1.56987,-113.547,-117.383)">
                <path d="M281.556,312.216C281.556,310.784 280.394,309.622 278.963,309.622L121.497,309.622C120.066,309.622 118.904,310.784 118.904,312.216L118.904,326.977C118.904,328.409 120.066,329.571 121.497,329.571L278.963,329.571C280.394,329.571 281.556,328.409 281.556,326.977L281.556,312.216Z" style="fill:white;"/>
            </g>
            <g transform="matrix(1.56987,0,0,1.56987,-113.547,-117.383)">
                <path d="M118.904,74.773L118.904,283.793L200,283.793C200,283.793 281.556,291.153 281.556,222.575C281.556,183.056 248.176,177.409 248.176,177.409C248.176,177.409 277.354,168.24 277.354,131.268C277.354,94.296 242.599,74.773 205.428,74.773L118.904,74.773ZM168.957,195.101L168.957,245.844C168.957,245.844 194.611,245.989 204.596,245.844C239.998,245.331 239.809,194.592 204.596,195.101C196.431,195.219 168.957,195.101 168.957,195.101ZM168.957,113.035L168.957,161.982C168.957,161.982 191.109,161.982 200.442,161.982C235.749,161.98 235.555,113.034 200.442,113.035C192.811,113.036 168.957,113.035 168.957,113.035Z" style="fill:white;"/>
            </g>
        </g>
    </g>
</svg>
