<svg id="Layer_1" data-name="Layer 1" xmlns="http://www.w3.org/2000/svg" viewBox="0 0 100 100"><defs><style>.cls-1{fill:black;}</style></defs><path class="cls-1" d="M34.57,43.42c0,3-3,4.67-5.19,5.47a54.39,54.39,0,0,0-6.44,2.74c-.46.28-1.54.62-1.54,1.31a.52.52,0,0,0,.29.51c.68.51,5.64,2.85,6.72,3.3,2.62,1.15,5.87,2.74,5.87,5.93,0,2.63-2.39,3.82-4.73,3.82a7.73,7.73,0,0,1-4.39-1.65c-3.25-2.22-6.55-4.33-10-6.33a6.8,6.8,0,0,1-3.25-5.58c0-3.37,2.9-5.08,5.19-6.45a80,80,0,0,0,7.63-4.73c1.49-1,3.77-2.28,5.59-2.28A4.33,4.33,0,0,1,34.57,43.42Z"/><path class="cls-1" d="M61.37,31.45c0,5.47-4.67,12.88-7.24,19-1.71,4.1-2.62,6.55-3.87,10.2A67.38,67.38,0,0,1,46.44,70a4.2,4.2,0,0,1-3.59,2.28A3.54,3.54,0,0,1,39.08,69c0-3.64,2.74-8.89,3.77-11.28,3-6.73,7.92-20,9.12-23,.91-2.34,2.11-6.9,5.13-6.9C59,27.74,61.37,28.2,61.37,31.45Z"/><path class="cls-1" d="M77,43.07c3,2.11,6.72,3.65,9.46,5.88a5.1,5.1,0,0,1,1.65,4c0,3.6-2.56,5.47-5,6.62-1.37.68-2.74,1.48-4,2.28-2.79,1.82-6.56,4.73-10,4.73a3.93,3.93,0,0,1-4-4c0-2.8,1.43-3.71,4.85-5.36,1.08-.52,8-3,8.38-3.42a1.34,1.34,0,0,0,.4-.91c0-1-2.74-1.77-3.53-2.11-2.11-.91-3.71-1.37-5.76-2.4-1.77-1-4.05-2.51-4.05-4.73a4.38,4.38,0,0,1,4.56-4.16C73,39.54,74.9,41.59,77,43.07Z"/></svg>