<?xml version="1.0" encoding="UTF-8" standalone="no"?>
<!DOCTYPE svg PUBLIC "-//W3C//DTD SVG 1.1//EN" "http://www.w3.org/Graphics/SVG/1.1/DTD/svg11.dtd">
<svg width="100%" height="100%" viewBox="0 0 700 700" version="1.1" xmlns="http://www.w3.org/2000/svg" xmlns:xlink="http://www.w3.org/1999/xlink" xml:space="preserve" xmlns:serif="http://www.serif.com/" style="fill-rule:evenodd;clip-rule:evenodd;stroke-linejoin:round;stroke-miterlimit:2;">
    <path d="M700,0L700,700L0,700L0,0L700,0ZM263.009,138.021C263.009,129.816 263.009,127.256 276.596,127.223L444.274,127.223C473.746,127.223 489.664,151.083 500.166,199.033L510.931,236.481L540.174,236.481C542.996,129.815 545.556,84.688 545.556,84.688C545.556,84.688 473.779,92.368 431.211,92.368L217.881,92.368L105.834,90.07L105.834,119.313L143.019,127.19C169.931,132.572 177.874,137.955 177.874,161.815C177.874,161.815 180.696,233.888 180.696,353.615C180.696,473.638 177.874,545.678 177.874,545.678C177.874,566.978 169.931,574.92 143.019,580.303L105.834,588.508L105.834,617.488L220.441,614.928L412.504,614.928C455.071,614.928 556.354,617.488 556.354,617.488C558.914,591.068 572.239,473.638 575.061,460.313L548.149,460.313L519.169,524.41C497.606,574.92 463.014,577.743 428.389,577.743L316.341,577.743C279.156,577.743 263.009,564.155 263.009,532.353L263.009,366.973C263.009,366.973 343.024,366.973 369.674,369.795C390.974,372.355 401.739,377.771 409.681,404.42L417.624,441.868L449.689,441.868L446.866,345.968L452.249,252.365L420.446,252.365L409.681,295.195C404.299,324.438 398.916,327.261 369.674,332.381C332.489,335.203 263.009,335.203 263.009,335.203L263.009,138.021Z" style="fill:white;"/>
</svg>
