<?xml version="1.0" encoding="UTF-8" standalone="no"?>
<!DOCTYPE svg PUBLIC "-//W3C//DTD SVG 1.1//EN" "http://www.w3.org/Graphics/SVG/1.1/DTD/svg11.dtd">
<svg width="100%" height="100%" viewBox="0 0 500 500" version="1.1" xmlns="http://www.w3.org/2000/svg" xmlns:xlink="http://www.w3.org/1999/xlink" xml:space="preserve" xmlns:serif="http://www.serif.com/" style="fill-rule:evenodd;clip-rule:evenodd;stroke-linejoin:round;stroke-miterlimit:2;">
    <g id="letterboxd-decal-dots-pos-rgb">
        <path id="Circle" d="M250,0C387.979,0 500,112.021 500,250C500,387.979 387.979,500 250,500C112.021,500 0,387.979 0,250C0,112.021 112.021,0 250,0ZM190.539,287.001C178.149,306.781 156.142,319.947 131.079,319.947C92.401,319.947 61,288.593 61,249.973C61,211.354 92.401,180 131.079,180C156.142,180 178.149,193.166 190.539,212.946C202.929,193.166 224.937,180 250,180C275.063,180 297.071,193.166 309.461,212.946C321.851,193.166 343.858,180 368.921,180C407.599,180 439,211.354 439,249.973C439,288.593 407.599,319.947 368.921,319.947C343.858,319.947 321.851,306.781 309.461,287.001C297.071,306.781 275.063,319.947 250,319.947C224.937,319.947 202.929,306.781 190.539,287.001Z" style="fill:rgb(32,40,48);"/>
        <g id="Overlap" transform="matrix(1,0,0,1,61,180)">
            <path d="M129.539,107.022C122.81,96.278 118.921,83.579 118.921,69.973C118.921,56.367 122.81,43.668 129.539,32.924C136.268,43.668 140.157,56.367 140.157,69.973C140.157,83.579 136.268,96.278 129.539,107.022Z" style="fill:rgb(32,40,48);"/>
        </g>
        <g id="Overlap1" serif:id="Overlap" transform="matrix(1,0,0,1,61,180)">
            <path d="M248.461,32.924C255.19,43.668 259.079,56.367 259.079,69.973C259.079,83.579 255.19,96.278 248.461,107.022C241.732,96.278 237.843,83.579 237.843,69.973C237.843,56.367 241.732,43.668 248.461,32.924Z" style="fill:rgb(32,40,48);"/>
        </g>
    </g>
</svg>
