<svg xmlns="http://www.w3.org/2000/svg" viewBox="0 0 100 100" fill="black"><path d="M68.05,59.82c0,7.43-4,12.37-11.27,13.91-2.18.26-2.49,2.87-2,4.66.68,3.23-1.41,5.34-5.61,5.3-2.27,0-4.7-1-4.7-3.82.13-2.46,1.34-5.26-2.05-5.9C38.82,73.34,32,70.63,32,64.9c0-2.08,1.84-4.62,4-4.62,1.88,0,3.16,1,4.79,2.25,2.12,1.63,5,3.86,10.1,3.86,4.9,0,8.06-2.64,8.06-6.73,0-4.37-4.3-5.17-6.37-5.56-9.08-2-19.36-3.72-19.31-14.24,0-8.75,7.13-11.94,10.19-12.91,2.2-.64,2.58-2.09,2.22-4-.5-3.62-.46-6.68,5.05-6.61,3.51-.13,5.3,2.69,4.65,6.06-.55,2.24.08,3.68,2.29,4.07,5.6,1.83,8.29,4.24,8.29,7.39.06,4.8-4.6,5.67-7.64,2.77a12.75,12.75,0,0,0-8.46-3.15c-3.24,0-8.06,1.54-8.06,5.78,0,4.72,5.09,5.74,10.47,6.82C59.64,47.53,68.05,49.21,68.05,59.82Z"/></svg>
