<svg id="Layer_1" data-name="Layer 1" xmlns="http://www.w3.org/2000/svg" viewBox="0 0 100 100"><defs><style>.cls-1{fill:black;}</style></defs><path class="cls-1" d="M69.66,19.68a4.12,4.12,0,0,1,5,4V64.25a9.22,9.22,0,0,1-.77,3.63,12.78,12.78,0,0,1-5.44,6C63.08,77,56.72,76,54.24,71.69s-.15-10.3,5.22-13.39a12.63,12.63,0,0,1,8.11-1.7,1.46,1.46,0,0,0,1.7-1.43V38.5a4.12,4.12,0,0,0-5-4L42,39.31a4.12,4.12,0,0,0-3.24,4V69A9.48,9.48,0,0,1,38,72.63a12.86,12.86,0,0,1-5.44,6c-5.37,3.09-11.73,2.12-14.21-2.18s-.15-10.3,5.21-13.4a12.71,12.71,0,0,1,8.11-1.69,1.47,1.47,0,0,0,1.71-1.43v-29a4.12,4.12,0,0,1,3.24-4Z"/></svg>