<?xml version="1.0" encoding="UTF-8" standalone="no"?>
<!DOCTYPE svg PUBLIC "-//W3C//DTD SVG 1.1//EN" "http://www.w3.org/Graphics/SVG/1.1/DTD/svg11.dtd">
<svg width="100%" height="100%" viewBox="0 0 500 422" version="1.1" xmlns="http://www.w3.org/2000/svg" xmlns:xlink="http://www.w3.org/1999/xlink" xml:space="preserve" xmlns:serif="http://www.serif.com/" style="fill-rule:evenodd;clip-rule:evenodd;stroke-linejoin:round;stroke-miterlimit:2;">
    <g id="Artboard1" transform="matrix(1,0,0,1,0,-39.4057)">
        <rect x="0" y="39.406" width="500" height="421.189" style="fill:none;"/>
        <clipPath id="_clip1">
            <rect x="0" y="39.406" width="500" height="421.189"/>
        </clipPath>
        <g clip-path="url(#_clip1)">
            <g transform="matrix(4.01132,0,0,4.01132,-283.921,-483.824)">
                <path d="M92.916,155.436C92.916,154.632 93.235,153.861 93.804,153.293C94.372,152.725 95.143,152.405 95.947,152.405C97.808,152.405 100.183,152.405 102.045,152.405C102.848,152.405 103.619,152.725 104.188,153.293C104.756,153.861 105.075,154.632 105.075,155.436C105.075,169.763 105.075,230.005 105.075,230.005C105.075,233.06 107.555,235.539 110.61,235.539L121.678,235.539C124.732,235.539 127.212,233.06 127.212,230.005L127.212,146.298C127.212,137.601 120.15,130.539 111.453,130.539L76.314,130.539C73.26,130.539 70.78,133.019 70.78,136.073L70.78,230.005C70.78,233.06 73.26,235.539 76.314,235.539L87.382,235.539C90.436,235.539 92.916,233.06 92.916,230.005L92.916,155.436Z"/>
            </g>
            <g transform="matrix(4.01132,0,0,4.01132,-283.921,-483.824)">
                <path d="M190.684,177.855L171.966,177.855C169.555,177.855 167.6,179.809 167.6,182.22L167.6,195.958C167.6,198.369 169.555,200.324 171.966,200.324L173.777,200.324L173.777,213.365L161.157,213.365L161.157,152.242L173.777,152.242L173.777,164.472C173.777,165.989 174.379,167.443 175.452,168.516C176.524,169.589 177.979,170.191 179.496,170.191C182.65,170.191 186.554,170.191 189.708,170.191C191.225,170.191 192.68,169.589 193.752,168.516C194.825,167.443 195.427,165.989 195.427,164.472C195.427,156.889 195.427,144.453 195.427,144.453C195.427,136.774 189.193,130.539 181.514,130.539L153.687,130.539C146.008,130.539 139.774,136.774 139.774,144.453L139.774,221.626C139.774,229.305 146.008,235.539 153.687,235.539L181.514,235.539C189.193,235.539 195.427,229.305 195.427,221.626L195.427,182.597C195.427,181.34 194.927,180.133 194.038,179.244C193.149,178.354 191.942,177.855 190.684,177.855Z"/>
            </g>
        </g>
    </g>
</svg>
