<svg id="Layer_1" data-name="Layer 1" xmlns="http://www.w3.org/2000/svg" viewBox="0 0 100 100"><defs><style>.cls-1{fill:black;}</style></defs><path class="cls-1" d="M79.44,20.12a2.81,2.81,0,0,0-2.16,2.78v2.39H72V22.9a2.81,2.81,0,0,0-2.17-2.78,2.75,2.75,0,0,0-3.32,2.69v7.92h-33V22.9a2.81,2.81,0,0,0-2.16-2.78A2.76,2.76,0,0,0,28,22.81v2.48H22.72V22.9a2.81,2.81,0,0,0-2.16-2.78,2.76,2.76,0,0,0-3.33,2.69V77.1a2.81,2.81,0,0,0,2.17,2.78,2.75,2.75,0,0,0,3.32-2.69V74.71H28V77.1a2.81,2.81,0,0,0,2.17,2.78,2.75,2.75,0,0,0,3.32-2.69V69.27h33V77.1a2.81,2.81,0,0,0,2.16,2.78A2.76,2.76,0,0,0,72,77.19V74.71h5.31V77.1a2.81,2.81,0,0,0,2.16,2.78,2.76,2.76,0,0,0,3.33-2.69V22.81A2.76,2.76,0,0,0,79.44,20.12ZM72,41.76h5.31v5.49H72Zm0,11h5.31v5.49H72Zm5.31-22v5.49H72V30.78ZM28,47.25H22.72V41.76H28Zm-5.31,5.5H28v5.49H22.72Zm5.31-22v5.49H22.72V30.78ZM22.72,69.22V63.73H28v5.49ZM66.48,61h-33V39h33ZM72,69.22V63.73h5.31v5.49Z"/></svg>