<svg xmlns="http://www.w3.org/2000/svg" viewBox="0 0 100 100" fill="#cc68B1"><path d="M50,0a50,50,0,1,0,50,50A50,50,0,0,0,50,0ZM41.67,15.05a8.44,8.44,0,1,1-8.44,8.43A8.42,8.42,0,0,1,41.67,15.05ZM30.13,31.66a8.44,8.44,0,1,1-8.44,8.43A8.43,8.43,0,0,1,30.13,31.66ZM21.69,59.91a8.44,8.44,0,1,1,8.44,8.43A8.44,8.44,0,0,1,21.69,59.91Zm20,25a8.44,8.44,0,1,1,8.43-8.43A8.43,8.43,0,0,1,41.67,85ZM64.56,72C47.67,73.72,35,56.87,41.75,41.28A22.82,22.82,0,0,1,59.6,28.09a23.16,23.16,0,0,1,15.5,3.05c4.49,2.85,3.45,8.76-1,10-2.5.71-5-.59-7.36-1.31A16.05,16.05,0,0,0,59,39.51a11.33,11.33,0,0,0-8.61,12A11.55,11.55,0,0,0,63.2,61.59c6.14-.87,5-7.18.06-5.54-8.34,2.79-11.64-9.64-3.06-11.56,8.11-1.81,17.21,3.34,18,11.91C79,64.59,72.47,71.12,64.56,72Z"/></svg>
