<?xml version="1.0" encoding="UTF-8" standalone="no"?>
<!DOCTYPE svg PUBLIC "-//W3C//DTD SVG 1.1//EN" "http://www.w3.org/Graphics/SVG/1.1/DTD/svg11.dtd">
<svg width="100%" height="100%" viewBox="0 0 100 100" version="1.1" xmlns="http://www.w3.org/2000/svg" xmlns:xlink="http://www.w3.org/1999/xlink" xml:space="preserve" xmlns:serif="http://www.serif.com/" style="fill-rule:evenodd;clip-rule:evenodd;stroke-linejoin:round;stroke-miterlimit:2;">
    <g transform="matrix(-1,0,0,1,100,0)">
        <circle cx="50" cy="50" r="50" style="fill-opacity:0.85;"/>
    </g>
    <g transform="matrix(-1,0,0,1,188.798,11.1084)">
        <path d="M128.564,12.028C129.997,12.028 131.449,12.292 132.919,12.82C134.39,13.348 135.483,13.838 136.199,14.29C136.916,14.743 138.084,15.591 139.706,16.835C141.327,18.08 142.288,18.815 142.59,19.041C144.249,20.172 147.303,22.001 151.752,24.527C156.201,27.053 159.405,29.108 161.366,30.691C163.553,32.501 164.646,35.178 164.646,38.722C164.646,44.377 161.328,48.751 154.693,51.843C152.43,52.974 149.753,54.482 146.662,56.367C146.511,56.442 145.399,57.178 143.325,58.573C141.251,59.968 139.838,60.891 139.084,61.344C138.329,61.796 137.104,62.475 135.408,63.38C133.711,64.285 132.184,64.907 130.827,65.246C129.469,65.585 128.15,65.755 126.868,65.755C124.756,65.755 122.909,65.02 121.325,63.549C119.742,62.079 118.95,60.175 118.95,57.837C118.95,55.198 119.629,53.219 120.986,51.899C122.343,50.58 124.87,49.015 128.564,47.205C129.092,46.979 130.732,46.338 133.485,45.282C136.237,44.227 138.82,43.227 141.233,42.285C143.646,41.342 144.965,40.72 145.191,40.419C145.719,39.74 145.983,39.137 145.983,38.609C145.983,38.232 145.795,37.855 145.418,37.478C145.041,37.101 144.55,36.761 143.947,36.46C143.344,36.158 142.76,35.875 142.194,35.611C141.629,35.348 141.006,35.102 140.328,34.876C139.649,34.65 139.197,34.499 138.97,34.424C138.066,34.047 136.331,33.349 133.767,32.331C131.204,31.313 129.13,30.427 127.546,29.673C122.193,26.732 119.516,23.603 119.516,20.285C119.516,17.872 120.439,15.893 122.287,14.347C124.134,12.801 126.227,12.028 128.564,12.028Z" style="fill:white;fill-rule:nonzero;"/>
    </g>
</svg>
