<svg width="100%" height="100%" viewBox="0 0 1000 1732" version="1.1" xmlns="http://www.w3.org/2000/svg" xmlns:xlink="http://www.w3.org/1999/xlink" xml:space="preserve" style="fill-rule:evenodd;clip-rule:evenodd;stroke-linejoin:round;stroke-miterlimit:2;">

    <g id="Artboard1" transform="matrix(0.999981,0,0,22.6647,175.482,-6403.11)">
        <g transform="matrix(1.10299,1.91331e-18,-1.22454e-16,0.0842856,-226.971,278.585)">
            <rect x="0" y="0" width="1000" height="1000" style="fill:rgb(233,118,189);"/>
        </g>
        <g transform="matrix(0.816531,-1.73456e-18,5.55122e-17,0.0360259,41.6426,289.381)">
            <circle cx="434.537" cy="416.097" r="171.46" style="fill:rgb(231,100,180);"/>
        </g>
        <g transform="matrix(0.408266,-0.0311993,0.707137,0.0180129,281.919,304.981)">
            <circle cx="434.537" cy="416.097" r="171.46" style="fill:rgb(231,100,180);"/>
        </g>
        <g transform="matrix(0.408266,0.0311993,-0.707137,0.0180129,-58.1486,261.488)">
            <circle cx="434.537" cy="416.097" r="171.46" style="fill:rgb(231,100,180);"/>
        </g>
        <g transform="matrix(0.77158,0.0117883,-0.267184,0.0340426,600.952,263.253)">
            <circle cx="434.537" cy="416.097" r="171.46" style="fill:rgb(231,100,180);"/>
        </g>
        <g transform="matrix(0.408266,0.0311993,-0.707137,0.0180129,227.541,272.407)">
            <circle cx="434.537" cy="416.097" r="171.46" style="fill:rgb(231,100,180);"/>
        </g>
        <g transform="matrix(0.816531,1.73456e-18,5.55122e-17,0.0360259,-172.627,262.094)">
            <circle cx="434.537" cy="416.097" r="171.46" style="fill:rgb(231,100,180);"/>
        </g>
        <g transform="matrix(0.408266,-0.0311993,0.707137,0.0180129,-3.77204,294.065)">
            <circle cx="434.537" cy="416.097" r="171.46" style="fill:rgb(231,100,180);"/>
        </g>
        <g transform="matrix(0.408266,0.0311993,-0.707137,0.0180129,227.541,272.407)">
            <circle cx="434.537" cy="416.097" r="171.46" style="fill:rgb(231,100,180);"/>
        </g>
        <g transform="matrix(0.816531,1.73456e-18,5.55122e-17,0.0360259,-172.627,262.094)">
            <circle cx="434.537" cy="416.097" r="171.46" style="fill:rgb(231,100,180);"/>
        </g>
        <g transform="matrix(0.408266,-0.0311993,0.707137,0.0180129,-3.77204,294.065)">
            <circle cx="434.537" cy="416.097" r="171.46" style="fill:rgb(231,100,180);"/>
        </g>
        <g transform="matrix(0.77158,0.0117883,-0.267184,0.0340426,-399.086,263.253)">
            <circle cx="434.537" cy="416.097" r="171.46" style="fill:rgb(231,100,180);"/>
        </g>
        <g transform="matrix(0.77158,0.0117883,-0.267184,0.0340426,600.952,263.253)">
            <circle cx="434.537" cy="416.097" r="171.46" style="fill:rgb(231,100,180);"/>
        </g>
        <g transform="matrix(0.408266,0.0311993,-0.707137,0.0180129,227.541,272.407)">
            <circle cx="434.537" cy="416.097" r="171.46" style="fill:rgb(231,100,180);"/>
        </g>
        <g transform="matrix(0.816531,1.73456e-18,5.55122e-17,0.0360259,-172.627,262.094)">
            <circle cx="434.537" cy="416.097" r="171.46" style="fill:rgb(231,100,180);"/>
        </g>
        <g transform="matrix(0.408266,-0.0311993,0.707137,0.0180129,-3.77204,294.065)">
            <circle cx="434.537" cy="416.097" r="171.46" style="fill:rgb(231,100,180);"/>
        </g>
        <g transform="matrix(0.408266,0.0311993,-0.707137,0.0180129,227.541,272.407)">
            <circle cx="434.537" cy="416.097" r="171.46" style="fill:rgb(231,100,180);"/>
        </g>
        <g transform="matrix(0.816531,1.73456e-18,5.55122e-17,0.0360259,-172.627,262.094)">
            <circle cx="434.537" cy="416.097" r="171.46" style="fill:rgb(231,100,180);"/>
        </g>
        <g transform="matrix(0.816531,1.73456e-18,5.55122e-17,0.0360259,113.064,273.01)">
            <circle cx="434.537" cy="416.097" r="171.46" style="fill:rgb(231,100,180);"/>
        </g>
        <g transform="matrix(0.77158,0.0117883,-0.267184,0.0340426,600.952,263.253)">
            <circle cx="434.537" cy="416.097" r="171.46" style="fill:rgb(231,100,180);"/>
        </g>
        <g transform="matrix(0.408266,0.0311993,-0.707137,0.0180129,227.541,272.407)">
            <circle cx="434.537" cy="416.097" r="171.46" style="fill:rgb(231,100,180);"/>
        </g>
        <g transform="matrix(0.408266,0.0311993,-0.707137,0.0180129,-129.65,277.867)">
            <circle cx="434.537" cy="416.097" r="171.46" style="fill:rgb(231,100,180);"/>
        </g>
        <g transform="matrix(0.816531,1.73456e-18,5.55122e-17,0.0360259,-172.627,262.094)">
            <circle cx="434.537" cy="416.097" r="171.46" style="fill:rgb(231,100,180);"/>
        </g>
        <g transform="matrix(0.77158,0.0117883,-0.267184,0.0340426,243.771,268.713)">
            <circle cx="434.537" cy="416.097" r="171.46" style="fill:rgb(231,100,180);"/>
        </g>
        <g transform="matrix(0.816531,1.73456e-18,5.55122e-17,0.0360259,41.6426,289.381)">
            <circle cx="434.537" cy="416.097" r="171.46" style="fill:rgb(231,100,180);"/>
        </g>
        <g transform="matrix(0.816531,1.73456e-18,5.55122e-17,0.0360259,-29.7789,305.752)">
            <circle cx="434.537" cy="416.097" r="171.46" style="fill:rgb(231,100,180);"/>
        </g>
        <g transform="matrix(0.816531,1.73456e-18,5.55122e-17,0.0360259,-101.2,322.123)">
            <circle cx="434.537" cy="416.097" r="171.46" style="fill:rgb(231,100,180);"/>
        </g>
        <g transform="matrix(0.816531,1.73456e-18,5.55122e-17,0.0360259,-315.46,294.833)">
            <circle cx="434.537" cy="416.097" r="171.46" style="fill:rgb(231,100,180);"/>
        </g>
        <g transform="matrix(0.816531,1.73456e-18,5.55122e-17,0.0360259,-386.881,311.205)">
            <circle cx="434.537" cy="416.097" r="171.46" style="fill:rgb(231,100,180);"/>
        </g>
        <g transform="matrix(0.408266,0.0311993,-0.707137,0.0180129,799.43,294.243)">
            <circle cx="434.537" cy="416.097" r="171.46" style="fill:rgb(231,100,180);"/>
        </g>
        <g transform="matrix(0.816531,1.73456e-18,5.55122e-17,0.0360259,256.429,316.669)">
            <circle cx="434.537" cy="416.097" r="171.46" style="fill:rgb(231,100,180);"/>
        </g>
        <g transform="matrix(0.816531,-1.73456e-18,5.55122e-17,0.0360259,-172.061,338.485)">
            <circle cx="434.537" cy="416.097" r="171.46" style="fill:rgb(231,100,180);"/>
        </g>
        <g transform="matrix(0.816531,-1.73456e-18,5.55122e-17,0.0360259,471.275,343.929)">
            <circle cx="434.537" cy="416.097" r="171.46" style="fill:rgb(231,100,180);"/>
        </g>
        <g transform="matrix(0.816531,-1.73456e-18,5.55122e-17,0.0360259,542.11,327.588)">
            <circle cx="434.537" cy="416.097" r="171.46" style="fill:rgb(231,100,180);"/>
        </g>
        <g transform="matrix(0.816531,-1.73456e-18,5.55122e-17,0.0360259,-458.26,327.568)">
            <circle cx="434.537" cy="416.097" r="171.46" style="fill:rgb(231,100,180);"/>
        </g>
        <g transform="matrix(0.77158,0.0117883,-0.267184,0.0340426,-398.974,339.642)">
            <circle cx="434.537" cy="416.097" r="171.46" style="fill:rgb(231,100,180);"/>
        </g>
        <g transform="matrix(0.816531,-1.73456e-18,5.55122e-17,0.0360259,113.655,349.383)">
            <circle cx="434.537" cy="416.097" r="171.46" style="fill:rgb(231,100,180);"/>
        </g>
        <g transform="matrix(0.816531,-1.73456e-18,5.55122e-17,0.0360259,185.05,333.033)">
            <circle cx="434.537" cy="416.097" r="171.46" style="fill:rgb(231,100,180);"/>
        </g>
        <g id="Background" transform="matrix(1.00002,0,0,0.0441215,-175.495,282.515)">
            <use xlink:href="#_Image2" x="0" y="0" width="1001px" height="1731px"/>
        </g>
    </g>
</svg>
