<?xml version="1.0" encoding="UTF-8" standalone="no"?>
<!DOCTYPE svg PUBLIC "-//W3C//DTD SVG 1.1//EN" "http://www.w3.org/Graphics/SVG/1.1/DTD/svg11.dtd">
<svg width="100%" height="100%" viewBox="0 0 100 182" version="1.1" xmlns="http://www.w3.org/2000/svg" xmlns:xlink="http://www.w3.org/1999/xlink" xml:space="preserve" xmlns:serif="http://www.serif.com/" style="fill-rule:evenodd;clip-rule:evenodd;stroke-linejoin:round;stroke-miterlimit:2;">
    <g id="Artboard1" transform="matrix(1,0,0,0.823991,0,0)">
        <rect x="0" y="0" width="100" height="220" style="fill:none;"/>
        <g transform="matrix(1,0,0,1.21361,0,-18.2041)">
            <path d="M100,98.73C86.51,98.73 75.41,109.83 75.41,123.32C75.41,136.81 86.51,147.91 100,147.91L100,196.278L0,196.278L0,60.8C20.298,60.8 37,44.098 37,23.8C36.996,20.834 36.634,17.879 35.92,15C40.48,16.409 45.227,17.117 50,17.1C54.773,17.117 59.52,16.409 64.08,15C63.376,17.877 63.021,20.828 63.021,23.79C63.021,44.08 79.71,60.779 100,60.79L100,98.73ZM50,158.26C58.499,158.26 65.4,165.161 65.4,173.66C65.4,182.159 58.499,189.06 50,189.06C41.501,189.06 34.6,182.159 34.6,173.66C34.6,165.161 41.501,158.26 50,158.26ZM0,98.73C13.49,98.73 24.59,109.83 24.59,123.32C24.59,136.81 13.49,147.91 0,147.91L0,98.73ZM50,42.3C67.131,42.3 81.04,56.209 81.04,73.34C81.04,90.471 67.131,104.38 50,104.38C32.869,104.38 18.96,90.471 18.96,73.34C18.96,56.209 32.869,42.3 50,42.3Z" style="fill:white;"/>
        </g>
    </g>
</svg>
