<svg id="Layer_1" data-name="Layer 1" xmlns="http://www.w3.org/2000/svg" viewBox="0 0 100 220"><defs><style>.cls-1{fill:#e976bd;}</style></defs><circle class="cls-1" cx="50" cy="203.66" r="15.4"/><path class="cls-1" d="M0,128.73a24.59,24.59,0,0,1,24.59,24.59A24.59,24.59,0,0,1,0,177.91Z"/><circle class="cls-1" cx="50" cy="103.34" r="31.04"/><path class="cls-1" d="M100,90.79A37,37,0,0,1,64.08,45,47.15,47.15,0,0,1,50,47.1,47.15,47.15,0,0,1,35.92,45,36.77,36.77,0,0,1,37,53.8a37,37,0,0,1-37,37V0H100Z"/><path class="cls-1" d="M100,128.73a24.59,24.59,0,0,0,0,49.18Z"/></svg>
